{"glyphs":{"0":{"ha":582,"x_min":0,"x_max":0,"o":"m 114 -18 b 586 482 342 -19 586 251 b 486 671 585 626 531 654 b -1 185 271 678 -3 440 b 114 -18 -3 50 54 -4 z m 200 26 b 128 213 136 33 119 122 b 372 624 147 410 236 638 b 451 461 440 618 457 535 b 200 26 433 249 347 13 z "},"1":{"ha":464,"x_min":0,"x_max":0,"o":"m -46 0 l 414 0 l 414 7 l 243 22 l 361 679 l 344 681 l 36 553 b 38 539 35 549 36 543 l 225 607 l 119 22 l -46 7 z "},"2":{"ha":550,"x_min":0,"x_max":0,"o":"m 519 161 b 454 96 501 142 464 96 l 164 97 b 88 72 157 97 121 83 b 508 535 263 199 508 386 b 349 669 508 606 456 669 b 54 531 313 668 114 578 l 65 524 b 261 600 131 568 201 600 b 358 504 303 600 358 567 b 31 54 358 343 208 183 l -35 8 l -36 0 l 404 0 l 535 158 z "},"3":{"ha":596,"x_min":0,"x_max":0,"o":"m 314 339 b 219 268 314 329 264 297 l 500 563 l 629 657 b 471 654 574 656 521 654 b 229 678 371 654 322 660 l 61 504 l 75 501 l 153 572 l 468 557 l 121 200 l 151 197 l 196 244 l 215 244 b 400 75 319 244 400 210 b 179 -243 400 -75 335 -229 b 51 -56 101 -243 51 -160 b 57 3 51 -36 54 -17 l 42 4 b -67 -89 14 -32 -40 -69 b -72 -143 -71 -108 -72 -126 b 122 -283 -72 -237 -14 -283 b 539 129 303 -283 539 -62 b 314 339 539 269 443 339 z "},"4":{"ha":703,"x_min":0,"x_max":0,"o":"m 524 344 l 508 347 l 404 325 l 343 21 l 343 19 l 28 13 l 89 39 l 668 676 l 667 681 b 464 676 600 654 540 671 b -40 -12 349 450 151 232 l -42 -14 l -40 -14 l -43 -17 l -36 -14 l 339 -7 l 281 -339 l 410 -292 l 414 -283 l 463 -4 l 626 -1 l 632 25 l 467 22 z "},"5":{"ha":644,"x_min":0,"x_max":0,"o":"m -56 -89 b 53 4 -29 -69 25 -32 l 68 3 b 63 -67 64 -21 63 -44 b 176 -243 63 -165 101 -243 b 376 51 322 -225 376 -89 b 181 233 376 164 326 238 l 122 207 l 100 211 l 254 678 b 436 663 315 665 375 663 b 699 671 518 663 603 668 l 589 553 b 253 563 528 539 349 546 l 133 235 b 321 342 211 271 321 328 b 518 121 425 342 518 260 b 119 -283 518 -61 290 -283 b -62 -151 -12 -283 -62 -240 b -56 -89 -62 -132 -60 -111 z "},"6":{"ha":618,"x_min":0,"x_max":0,"o":"m 8 226 b 814 992 8 590 424 921 l 815 972 b 143 254 529 949 143 554 b 271 43 143 140 193 49 b 460 367 376 35 449 218 b 351 529 468 485 407 525 b 219 456 294 532 260 510 l 210 468 b 447 613 257 532 447 603 b 594 406 542 606 601 511 b 200 -4 581 218 372 -1 b 8 226 78 7 8 85 z "},"7":{"ha":622,"x_min":0,"x_max":0,"o":"m 50 504 l 218 678 b 674 657 358 650 506 653 l 131 -331 l -57 -328 l -50 -314 b 576 547 110 -176 451 343 b 151 561 397 542 328 546 l 64 501 z "},"8":{"ha":604,"x_min":0,"x_max":0,"o":"m 653 807 b 422 989 653 939 550 989 b 110 696 315 989 110 825 b 238 485 110 604 169 542 b -4 175 146 431 -4 357 b 254 -18 -4 38 124 -18 b 579 300 376 -18 579 157 b 413 547 579 414 493 482 b 653 807 508 601 653 669 z m 403 556 b 257 747 401 553 257 628 b 406 965 257 831 318 965 b 522 824 493 965 522 911 b 403 556 522 706 504 607 z m 440 238 b 264 0 440 117 346 0 b 133 176 193 0 133 60 b 250 475 133 311 161 397 b 440 238 340 403 440 340 z "},"9":{"ha":657,"x_min":0,"x_max":0,"o":"m 640 421 b -110 -367 640 65 264 -271 l -112 -347 b 496 372 151 -307 496 89 b 365 617 496 506 453 617 b 182 281 246 617 182 429 b 306 126 182 161 250 126 b 446 210 363 126 408 153 l 456 197 b 215 36 414 131 215 46 b 40 231 121 36 40 125 b 433 669 40 419 247 654 b 640 421 565 667 640 582 z "},"A":{"ha":835,"x_min":0,"x_max":0,"o":"m 735 22 l 625 979 l 544 972 l 392 972 l 390 964 l 492 944 l 1 25 l -111 8 l -111 0 l 158 0 l 158 8 l 44 26 l 210 342 l 557 342 l 585 21 l 501 8 l 500 0 l 822 0 l 824 8 z m 224 368 l 506 903 l 508 893 l 554 368 z "},"Á":{"ha":833,"x_min":0,"x_max":0,"o":"m 753 1208 l 753 1210 b 717 1224 751 1210 717 1224 l 621 1210 b 454 1022 621 1203 488 1065 l 482 1019 z m 735 22 l 625 979 l 544 972 l 392 972 l 390 964 l 492 944 l 1 25 l -111 8 l -111 0 l 158 0 l 158 8 l 44 26 l 210 342 l 557 342 l 585 21 l 501 8 l 500 0 l 822 0 l 824 8 z m 224 368 l 506 903 l 508 893 l 554 368 z "},"Â":{"ha":835,"x_min":0,"x_max":0,"o":"m 567 1142 l 697 1040 l 717 1051 l 594 1239 l 567 1239 l 378 1051 l 399 1040 z m 735 22 l 625 979 l 544 972 l 392 972 l 390 964 l 492 944 l 1 25 l -111 8 l -111 0 l 158 0 l 158 8 l 44 26 l 210 342 l 557 342 l 585 21 l 501 8 l 500 0 l 822 0 l 824 8 z m 224 368 l 506 903 l 508 893 l 554 368 z "},"Ä":{"ha":835,"x_min":0,"x_max":0,"o":"m 465 1028 b 543 1107 506 1028 543 1065 b 489 1161 543 1138 521 1161 b 407 1085 449 1161 407 1125 b 465 1028 407 1053 432 1028 z m 664 1028 b 743 1107 704 1028 743 1065 b 688 1161 743 1138 719 1161 b 607 1085 649 1161 607 1125 b 664 1028 607 1053 631 1028 z m 735 22 l 625 979 l 544 972 l 392 972 l 390 964 l 492 944 l 1 25 l -111 8 l -111 0 l 158 0 l 158 8 l 44 26 l 210 342 l 557 342 l 585 21 l 501 8 l 500 0 l 822 0 l 824 8 z m 224 368 l 506 903 l 508 893 l 554 368 z "},"À":{"ha":833,"x_min":0,"x_max":0,"o":"m 586 1022 b 419 1210 553 1065 419 1203 l 324 1224 b 288 1210 324 1224 289 1210 l 288 1208 l 558 1019 z m 735 22 l 625 979 l 544 972 l 392 972 l 390 964 l 492 944 l 1 25 l -111 8 l -111 0 l 158 0 l 158 8 l 44 26 l 210 342 l 557 342 l 585 21 l 501 8 l 500 0 l 822 0 l 824 8 z m 224 368 l 506 903 l 508 893 l 554 368 z "},"Å":{"ha":835,"x_min":0,"x_max":0,"o":"m 563 1042 b 694 1179 625 1042 694 1106 b 604 1276 694 1235 654 1276 b 471 1139 539 1276 471 1213 b 563 1042 471 1083 511 1042 z m 597 1236 b 642 1176 624 1236 642 1208 b 569 1083 642 1129 606 1083 b 524 1144 542 1083 524 1110 b 597 1236 524 1186 558 1236 z m 735 22 l 625 979 l 544 972 l 392 972 l 390 964 l 492 944 l 1 25 l -111 8 l -111 0 l 158 0 l 158 8 l 44 26 l 210 342 l 557 342 l 585 21 l 501 8 l 500 0 l 822 0 l 824 8 z m 224 368 l 506 903 l 508 893 l 554 368 z "},"Ã":{"ha":835,"x_min":0,"x_max":0,"o":"m 493 1115 b 638 1104 539 1115 592 1104 b 789 1257 657 1114 774 1169 l 765 1257 b 676 1188 756 1200 725 1188 b 517 1196 636 1188 582 1196 b 364 1042 496 1186 379 1131 l 388 1042 b 493 1115 397 1101 440 1115 z m 735 22 l 625 979 l 544 972 l 392 972 l 390 964 l 492 944 l 1 25 l -111 8 l -111 0 l 158 0 l 158 8 l 44 26 l 210 342 l 557 342 l 585 21 l 501 8 l 500 0 l 822 0 l 824 8 z m 224 368 l 506 903 l 508 893 l 554 368 z "},"Æ":{"ha":1321,"x_min":0,"x_max":0,"o":"m 960 878 l 972 946 l 1278 946 b 1376 789 1300 918 1374 810 l 1389 792 l 1357 972 l 697 972 l 696 964 l 803 946 l 4 19 l 7 26 l -111 8 l -111 0 l 158 0 l 158 8 l 51 25 l 322 342 l 717 342 l 686 182 l 654 21 l 565 8 l 564 0 l 651 0 l 761 -1 l 1206 -1 l 1294 181 l 1283 183 b 1136 25 1272 163 1168 53 l 819 25 l 894 485 l 1139 490 l 1146 385 l 1154 392 l 1172 490 l 1176 517 l 1193 618 l 1186 624 l 1143 517 l 900 511 z m 344 368 l 821 925 l 824 907 l 825 904 l 722 368 z "},"B":{"ha":801,"x_min":0,"x_max":0,"o":"m 572 521 b 806 815 713 563 806 661 b 538 974 806 938 679 975 l 161 972 l 160 964 l 257 942 l 99 33 l -14 8 l -15 0 l 382 0 b 772 313 590 0 772 75 b 572 521 772 419 696 496 z m 396 936 b 499 951 411 947 461 950 b 679 792 607 950 679 878 b 440 529 679 654 586 529 l 432 529 l 340 532 b 325 533 336 532 331 533 z m 414 29 b 247 92 381 29 278 47 l 318 496 b 435 501 344 500 392 501 b 640 303 575 500 640 403 b 414 29 640 163 560 29 z "},"C":{"ha":706,"x_min":0,"x_max":0,"o":"m 553 989 b 29 356 254 943 29 657 b 332 -18 29 119 197 -17 b 674 224 429 21 632 157 l 657 235 b 421 82 615 186 499 78 b 178 390 258 82 178 219 b 508 956 178 643 301 956 b 738 688 626 956 707 814 l 756 692 l 760 956 b 553 989 697 979 617 989 z "},"Ç":{"ha":753,"x_min":0,"x_max":0,"o":"m 593 989 b 69 356 294 943 69 657 b 332 -14 69 142 207 11 l 167 -124 l 169 -129 b 261 -122 183 -129 222 -122 b 363 -187 311 -122 363 -133 b 243 -337 363 -254 308 -337 b 172 -239 215 -337 164 -287 b 107 -268 149 -244 129 -253 b 236 -350 100 -312 197 -350 b 433 -161 311 -350 433 -253 b 328 -85 433 -107 385 -85 b 217 -111 289 -85 247 -94 l 414 1 b 714 224 518 54 678 165 l 697 235 b 461 82 656 186 539 78 b 217 390 299 82 217 219 b 549 956 217 643 342 956 b 778 688 667 956 747 814 l 796 692 l 800 956 b 593 989 738 979 657 989 z "},"D":{"ha":918,"x_min":0,"x_max":0,"o":"m -15 0 l 258 0 l 385 -1 b 947 574 450 3 885 218 b 551 974 1000 874 853 999 l 171 972 l 169 964 l 285 936 l 126 36 l -14 8 z m 276 97 l 424 919 b 506 953 435 950 485 953 b 788 558 706 953 842 871 b 444 57 736 265 572 57 b 276 97 374 57 297 57 z "},"Ð":{"ha":911,"x_min":0,"x_max":0,"o":"m 551 974 l 171 972 l 169 964 l 285 936 l 217 547 l 139 543 l 139 524 l 213 524 l 126 36 l -14 8 l -15 0 l 258 0 l 385 -1 b 947 574 450 3 885 218 b 551 974 1000 874 853 999 z m 788 558 b 444 57 736 265 572 57 b 276 97 374 57 297 57 l 353 524 l 446 524 l 446 543 l 357 549 l 424 919 b 506 953 435 950 485 953 b 788 558 706 953 842 871 z "},"E":{"ha":733,"x_min":0,"x_max":0,"o":"m 385 946 l 690 946 b 789 789 713 918 786 810 l 801 792 l 769 972 l 157 972 l 156 964 l 246 950 l 82 22 l -14 8 l -15 0 l 78 0 l 188 -1 l 618 -1 l 707 181 l 696 183 b 549 25 685 163 581 53 l 221 25 l 303 485 l 551 490 l 558 385 l 567 392 l 585 490 l 589 517 l 606 618 l 599 624 l 556 517 l 307 511 z "},"É":{"ha":833,"x_min":0,"x_max":0,"o":"m 697 1208 l 697 1210 b 661 1224 696 1210 661 1224 l 565 1210 b 399 1022 565 1203 432 1065 l 426 1019 z m 385 946 l 690 946 b 789 789 713 918 786 810 l 801 792 l 769 972 l 157 972 l 156 964 l 246 950 l 82 22 l -14 8 l -15 0 l 78 0 l 188 -1 l 618 -1 l 707 181 l 696 183 b 549 25 685 163 581 53 l 221 25 l 303 485 l 551 490 l 558 385 l 567 392 l 585 490 l 589 517 l 606 618 l 599 624 l 556 517 l 307 511 z "},"Ê":{"ha":733,"x_min":0,"x_max":0,"o":"m 507 1142 l 638 1040 l 657 1051 l 535 1239 l 507 1239 l 318 1051 l 339 1040 z m 385 946 l 690 946 b 789 789 713 918 786 810 l 801 792 l 769 972 l 157 972 l 156 964 l 246 950 l 82 22 l -14 8 l -15 0 l 78 0 l 188 -1 l 618 -1 l 707 181 l 696 183 b 549 25 685 163 581 53 l 221 25 l 303 485 l 551 490 l 558 385 l 567 392 l 585 490 l 589 517 l 606 618 l 599 624 l 556 517 l 307 511 z "},"Ë":{"ha":733,"x_min":0,"x_max":0,"o":"m 396 1028 b 474 1107 436 1028 474 1065 b 419 1161 474 1138 451 1161 b 338 1085 379 1161 338 1125 b 396 1028 338 1053 363 1028 z m 594 1028 b 674 1107 635 1028 674 1065 b 618 1161 674 1138 650 1161 b 538 1085 579 1161 538 1125 b 594 1028 538 1053 561 1028 z m 385 946 l 690 946 b 789 789 713 918 786 810 l 801 792 l 769 972 l 157 972 l 156 964 l 246 950 l 82 22 l -14 8 l -15 0 l 78 0 l 188 -1 l 618 -1 l 707 181 l 696 183 b 549 25 685 163 581 53 l 221 25 l 303 485 l 551 490 l 558 385 l 567 392 l 585 490 l 589 517 l 606 618 l 599 624 l 556 517 l 307 511 z "},"È":{"ha":833,"x_min":0,"x_max":0,"o":"m 586 1022 b 419 1210 553 1065 419 1203 l 324 1224 b 288 1210 324 1224 289 1210 l 288 1208 l 558 1019 z m 385 946 l 690 946 b 789 789 713 918 786 810 l 801 792 l 769 972 l 157 972 l 156 964 l 246 950 l 82 22 l -14 8 l -15 0 l 78 0 l 188 -1 l 618 -1 l 707 181 l 696 183 b 549 25 685 163 581 53 l 221 25 l 303 485 l 551 490 l 558 385 l 567 392 l 585 490 l 589 517 l 606 618 l 599 624 l 556 517 l 307 511 z "},"F":{"ha":765,"x_min":0,"x_max":0,"o":"m 803 972 l 163 972 l 161 964 l 279 946 l 117 26 l 7 8 l 6 0 l 414 0 l 415 8 l 256 26 l 331 450 l 582 450 l 618 317 l 626 317 l 651 460 l 656 476 l 679 611 l 671 611 l 588 476 l 335 476 l 418 946 l 696 946 b 806 717 738 904 793 760 l 814 717 l 838 976 z "},"G":{"ha":831,"x_min":0,"x_max":0,"o":"m 847 421 l 483 421 l 482 410 l 611 396 l 615 397 l 574 160 b 392 60 518 115 446 69 b 175 390 243 60 175 219 b 497 956 175 643 304 956 b 726 688 615 956 696 814 l 744 692 l 749 956 b 542 989 686 979 606 989 b 28 356 257 943 28 657 b 303 -18 28 119 182 -17 b 568 126 378 7 488 68 l 515 -181 l 649 -112 l 742 399 l 846 413 z "},"H":{"ha":843,"x_min":0,"x_max":0,"o":"m 957 972 l 646 972 l 644 964 l 732 950 l 650 514 l 307 514 l 383 950 l 385 950 l 468 964 l 469 972 l 156 972 l 154 964 l 244 950 l 82 22 l -14 8 l -15 0 l 310 0 l 311 8 l 221 22 l 303 488 l 646 488 l 558 22 l 464 8 l 463 0 l 785 0 l 786 8 l 697 22 l 860 951 l 861 950 l 956 964 z "},"I":{"ha":353,"x_min":0,"x_max":0,"o":"m 468 964 l 469 972 l 156 972 l 154 964 l 244 950 l 82 21 l 81 22 l -14 8 l -15 0 l 310 0 l 311 8 l 221 22 l 383 950 z "},"Í":{"ha":404,"x_min":0,"x_max":0,"o":"m 572 1201 l 538 1218 l 429 1203 l 279 1024 l 324 1024 z m 469 972 l 156 972 l 154 964 l 244 950 l 82 21 l 81 22 l -14 8 l -15 0 l 310 0 l 311 8 l 221 22 l 383 950 l 468 964 z "},"Î":{"ha":353,"x_min":0,"x_max":0,"o":"m 386 1239 l 358 1239 l 169 1051 l 190 1040 l 358 1142 l 489 1040 l 508 1051 z m 469 972 l 156 972 l 154 964 l 244 950 l 82 21 l 81 22 l -14 8 l -15 0 l 310 0 l 311 8 l 221 22 l 383 950 l 468 964 z "},"Ï":{"ha":353,"x_min":0,"x_max":0,"o":"m 229 1028 b 307 1107 269 1028 307 1065 b 253 1161 307 1138 285 1161 b 171 1085 213 1161 171 1125 b 229 1028 171 1053 196 1028 z m 451 1161 b 371 1085 413 1161 371 1125 b 428 1028 371 1053 394 1028 b 507 1107 468 1028 507 1065 b 451 1161 507 1138 483 1161 z m 469 972 l 156 972 l 154 964 l 244 950 l 82 21 l 81 22 l -14 8 l -15 0 l 310 0 l 311 8 l 221 22 l 383 950 l 468 964 z "},"Ì":{"ha":353,"x_min":0,"x_max":0,"o":"m 338 1042 l 251 1221 l 149 1236 l 108 1219 l 293 1042 z m 468 964 l 469 972 l 156 972 l 154 964 l 244 950 l 82 21 l 81 22 l -14 8 l -15 0 l 310 0 l 311 8 l 221 22 l 383 950 z "},"J":{"ha":426,"x_min":0,"x_max":0,"o":"m 443 971 l 172 972 l 169 960 l 306 938 l 90 -247 b 3 -300 79 -283 49 -300 b -112 -239 -32 -300 -74 -274 l -212 -324 b -61 -381 -182 -353 -124 -376 b 268 -17 33 -376 249 -133 z "},"K":{"ha":835,"x_min":0,"x_max":0,"o":"m 919 964 l 921 972 l 708 972 l 707 964 l 796 944 l 375 458 l 275 378 l 267 378 l 374 949 l 467 960 l 468 972 l 350 971 l 156 972 l 154 964 l 244 947 l 86 26 l -12 10 l -14 1 l 204 1 l 279 357 l 363 414 l 613 0 l 743 0 l 846 71 l 842 78 l 760 36 b 513 435 718 36 513 401 l 408 454 l 829 944 z "},"L":{"ha":761,"x_min":0,"x_max":0,"o":"m 732 260 b 519 19 697 208 561 18 l 247 21 l 419 944 l 539 960 l 542 972 l 396 971 l 163 972 l 161 964 l 278 943 l 110 28 l -4 11 l -6 0 l 676 0 l 742 257 z "},"M":{"ha":1150,"x_min":0,"x_max":0,"o":"m 1265 954 l 1268 972 l 1081 972 l 1018 975 l 1018 972 l 1017 972 l 607 221 l 454 976 l 336 972 l 169 972 l 167 954 l 285 936 l 121 32 l -25 8 l -26 0 l 299 0 l 300 8 l 164 33 l 319 924 l 499 -3 l 522 -3 l 1003 881 l 864 25 l 756 8 l 754 0 l 1107 0 l 1108 8 l 1006 25 l 1003 22 l 1151 938 z "},"N":{"ha":901,"x_min":0,"x_max":0,"o":"m 1072 972 l 757 972 l 756 964 l 907 940 l 785 224 l 446 976 l 333 972 l 167 972 l 164 954 l 282 936 l 118 32 l -14 8 l -15 0 l 296 0 l 297 8 l 161 33 l 317 921 l 317 918 l 714 0 l 783 0 l 950 939 l 1071 964 z "},"Ñ":{"ha":901,"x_min":0,"x_max":0,"o":"m 594 1115 b 739 1104 640 1115 693 1104 b 890 1257 758 1114 875 1169 l 867 1257 b 778 1188 857 1200 826 1188 b 618 1196 738 1188 683 1196 b 465 1042 597 1186 481 1131 l 489 1042 b 594 1115 499 1101 542 1115 z m 1072 972 l 757 972 l 756 964 l 907 940 l 785 224 l 446 976 l 333 972 l 167 972 l 164 954 l 282 936 l 118 32 l -14 8 l -15 0 l 296 0 l 297 8 l 161 33 l 317 921 l 317 918 l 714 0 l 783 0 l 950 939 l 1071 964 z "},"O":{"ha":768,"x_min":0,"x_max":0,"o":"m 189 -18 b 811 703 517 -19 811 372 b 663 992 811 910 725 974 b 15 275 353 1003 14 642 b 189 -18 14 81 117 -4 z m 317 51 b 165 288 217 51 165 168 b 518 926 165 550 299 926 b 661 672 615 926 661 792 b 317 51 661 381 543 51 z "},"Ó":{"ha":815,"x_min":0,"x_max":0,"o":"m 668 1024 l 818 1203 l 926 1218 l 961 1201 l 713 1024 z m 189 -18 b 811 703 517 -19 811 372 b 663 992 811 910 725 974 b 15 275 353 1003 14 642 b 189 -18 14 81 117 -4 z m 317 51 b 165 288 217 51 165 168 b 518 926 165 550 299 926 b 661 672 615 926 661 792 b 317 51 661 381 543 51 z "},"Ô":{"ha":815,"x_min":0,"x_max":0,"o":"m 678 1142 l 808 1040 l 828 1051 l 706 1239 l 678 1239 l 489 1051 l 510 1040 z m 663 992 b 15 275 353 1003 14 642 b 189 -18 14 81 117 -4 b 811 703 517 -19 811 372 b 663 992 811 910 725 974 z m 317 51 b 165 288 217 51 165 168 b 518 926 165 550 299 926 b 661 672 615 926 661 792 b 317 51 661 381 543 51 z "},"Ö":{"ha":833,"x_min":0,"x_max":0,"o":"m 576 1028 b 654 1107 617 1028 654 1065 b 600 1161 654 1138 632 1161 b 518 1085 560 1161 518 1125 b 576 1028 518 1053 543 1028 z m 775 1028 b 854 1107 815 1028 854 1065 b 799 1161 854 1138 831 1161 b 718 1085 760 1161 718 1125 b 775 1028 718 1053 742 1028 z m 189 -18 b 811 703 517 -19 811 372 b 663 992 811 910 725 974 b 15 275 353 1003 14 642 b 189 -18 14 81 117 -4 z m 317 51 b 165 288 217 51 165 168 b 518 926 165 550 299 926 b 661 672 615 926 661 792 b 317 51 661 381 543 51 z "},"Ò":{"ha":822,"x_min":0,"x_max":0,"o":"m 693 1042 l 649 1042 l 464 1219 l 504 1236 l 607 1221 z m 229 -18 b 865 703 557 -19 865 372 b 703 992 865 910 765 974 b 42 275 393 1003 40 642 b 229 -18 40 81 157 -4 z m 357 51 b 200 315 264 61 188 186 b 558 926 226 599 361 946 b 713 672 656 919 721 779 b 357 51 685 368 567 32 z "},"Ø":{"ha":768,"x_min":0,"x_max":0,"o":"m 811 703 b 711 968 811 858 763 933 l 749 1042 l 664 1042 l 639 992 b 15 275 336 985 14 632 b 142 0 14 121 79 35 l 113 -58 l 192 -58 l 213 -18 b 811 703 531 -1 811 381 z m 165 288 b 518 926 165 550 299 926 b 590 896 547 926 571 915 l 204 124 b 165 288 178 168 165 228 z m 317 51 b 256 68 294 51 274 57 l 636 819 b 661 672 653 775 661 722 b 317 51 661 381 543 51 z "},"Õ":{"ha":417,"x_min":0,"x_max":0,"o":"m 142 1042 l 165 1042 b 271 1115 175 1101 218 1115 b 415 1104 317 1115 369 1104 b 567 1257 435 1114 551 1169 l 543 1257 b 454 1188 533 1200 503 1188 b 294 1196 414 1188 360 1196 b 142 1042 274 1186 157 1131 z m -131 -18 b 492 703 197 -19 492 372 b 343 992 492 910 406 974 b -304 275 33 1003 -306 642 b -131 -18 -306 81 -203 -4 z m -3 51 b -154 288 -103 51 -154 168 b 199 926 -154 550 -21 926 b 342 672 296 926 342 792 b -3 51 342 381 224 51 z "},"Œ":{"ha":1007,"x_min":0,"x_max":0,"o":"m 1064 789 l 1076 792 l 1044 972 l 663 972 b 15 275 353 983 14 642 b 189 1 14 100 117 15 l 399 0 l 400 0 l 893 0 l 982 182 l 971 185 b 824 26 960 164 856 54 l 460 26 b 825 490 636 115 769 297 l 826 490 l 833 385 l 842 392 l 860 490 l 864 517 l 881 618 l 874 624 l 832 519 b 853 683 846 575 853 629 b 724 946 853 835 785 910 l 965 946 b 1064 789 988 918 1061 810 z m 150 288 b 478 903 150 533 281 863 l 324 44 l 321 43 b 150 288 225 53 150 190 z m 696 514 l 542 511 l 607 871 b 710 672 665 825 710 740 b 696 514 710 621 706 568 z m 457 51 l 536 485 l 692 488 b 457 51 656 306 572 129 z "},"P":{"ha":757,"x_min":0,"x_max":0,"o":"m 325 447 b 815 817 585 447 815 542 b 550 974 815 938 692 975 l 156 972 l 154 964 l 269 936 l 111 31 l -1 13 l -3 0 l 361 0 l 361 13 l 247 31 z m 328 471 l 408 936 b 511 951 424 947 474 950 b 688 790 618 950 688 876 b 442 474 688 656 600 474 b 328 471 400 474 369 468 z "},"Þ":{"ha":833,"x_min":0,"x_max":0,"o":""},"Q":{"ha":831,"x_min":0,"x_max":0,"o":"m 658 -201 b 244 -62 624 -225 419 -67 b 418 24 306 -33 367 -3 b 501 69 446 36 474 51 b 504 71 503 69 503 71 b 853 703 706 206 853 469 b 704 992 853 910 767 974 b 57 275 394 1003 56 642 b 231 -18 56 81 158 -4 b 306 -11 256 -18 281 -15 l 53 -139 l -40 -178 b 0 -189 -29 -187 -15 -192 b 94 -137 25 -174 57 -157 b 561 -289 246 -171 386 -215 l 574 -294 l 772 -158 l 763 -144 z m 207 288 b 560 926 207 550 340 926 b 703 672 657 926 703 792 b 358 51 703 381 585 51 b 207 288 258 51 207 168 z "},"R":{"ha":871,"x_min":0,"x_max":0,"o":"m -1 0 l 233 0 l 308 447 l 435 449 b 619 0 472 439 547 147 l 788 0 l 894 65 l 889 72 l 796 31 b 588 429 713 31 597 429 l 496 461 b 800 819 676 485 800 632 b 510 974 800 938 671 974 l 156 972 l 154 964 l 256 943 l 97 28 l 1 10 z m 318 489 l 394 933 b 471 951 408 944 447 950 b 669 796 594 950 669 889 b 456 482 669 640 617 482 b 318 489 414 481 371 479 z "},"S":{"ha":739,"x_min":0,"x_max":0,"o":"m 22 99 b 304 -19 50 64 197 -19 b 707 329 522 17 707 135 b 244 783 707 507 244 617 b 442 947 244 869 339 940 b 624 856 515 944 576 913 l 703 736 l 717 736 l 722 926 b 485 988 660 967 560 985 b 125 661 300 961 125 824 b 567 233 125 497 567 401 b 360 15 567 129 471 15 b 179 92 282 15 243 43 b 83 336 106 174 83 267 l 69 333 l 24 99 z "},"T":{"ha":803,"x_min":0,"x_max":0,"o":"m 860 978 b 776 972 842 975 790 972 l 293 972 b 213 978 279 972 231 975 l 194 978 l 117 715 l 125 715 b 313 946 151 756 250 890 l 460 946 l 301 49 l 301 50 l 132 8 l 131 0 l 594 0 l 596 8 l 440 50 l 599 946 l 749 946 b 856 715 790 890 843 756 l 864 715 l 878 978 z "},"U":{"ha":817,"x_min":0,"x_max":0,"o":"m 125 965 l 219 950 b 106 214 192 789 106 310 b 379 -17 106 90 182 -19 b 736 332 508 18 697 110 l 842 936 l 957 964 l 958 972 l 694 972 l 693 964 l 803 936 l 703 369 b 419 57 665 156 554 57 b 242 251 365 57 242 71 b 357 950 242 308 325 774 l 460 963 l 461 972 l 126 972 z "},"Ú":{"ha":833,"x_min":0,"x_max":0,"o":"m 557 1024 l 707 1203 l 815 1218 l 850 1201 l 601 1024 z m 125 965 l 219 950 b 106 214 192 789 106 310 b 379 -17 106 90 182 -19 b 736 332 508 18 697 110 l 842 936 l 957 964 l 958 972 l 694 972 l 693 964 l 803 936 l 703 369 b 419 57 665 156 554 57 b 242 251 365 57 242 71 b 357 950 242 308 325 774 l 460 963 l 461 972 l 126 972 z "},"Û":{"ha":833,"x_min":0,"x_max":0,"o":"m 589 1142 l 719 1040 l 739 1051 l 617 1239 l 589 1239 l 400 1051 l 421 1040 z m 694 972 l 693 964 l 803 936 l 703 369 b 419 57 665 156 554 57 b 242 251 365 57 242 71 b 357 950 242 308 325 774 l 460 963 l 461 972 l 126 972 l 125 965 l 219 950 b 106 214 192 789 106 310 b 379 -17 106 90 182 -19 b 736 332 508 18 697 110 l 842 936 l 957 964 l 958 972 z "},"Ü":{"ha":833,"x_min":0,"x_max":0,"o":"m 479 1028 b 557 1107 519 1028 557 1065 b 503 1161 557 1138 535 1161 b 421 1085 463 1161 421 1125 b 479 1028 421 1053 446 1028 z m 678 1028 b 757 1107 718 1028 757 1065 b 701 1161 757 1138 733 1161 b 621 1085 663 1161 621 1125 b 678 1028 621 1053 644 1028 z m 125 965 l 219 950 b 106 214 192 789 106 310 b 379 -17 106 90 182 -19 b 736 332 508 18 697 110 l 842 936 l 957 964 l 958 972 l 694 972 l 693 964 l 803 936 l 703 369 b 419 57 665 156 554 57 b 242 251 365 57 242 71 b 357 950 242 308 325 774 l 460 963 l 461 972 l 126 972 z "},"Ù":{"ha":833,"x_min":0,"x_max":0,"o":"m 568 1042 l 524 1042 l 339 1219 l 379 1236 l 482 1221 z m 125 965 l 219 950 b 106 214 192 789 106 310 b 379 -17 106 90 182 -19 b 736 332 508 18 697 110 l 842 936 l 957 964 l 958 972 l 694 972 l 693 964 l 803 936 l 703 369 b 419 57 665 156 554 57 b 242 251 365 57 242 71 b 357 950 242 308 325 774 l 460 963 l 461 972 l 126 972 z "},"V":{"ha":781,"x_min":0,"x_max":0,"o":"m 901 972 l 626 972 l 625 964 b 749 744 725 964 749 858 l 414 65 l 414 71 l 410 71 l 340 972 l 58 972 l 57 964 l 188 951 l 269 -10 l 376 0 l 421 0 z "},"W":{"ha":1336,"x_min":0,"x_max":0,"o":"m 1457 972 l 1154 972 l 1153 964 b 1301 749 1251 964 1300 861 l 935 53 l 938 71 l 868 969 l 869 972 l 868 972 l 867 985 l 718 947 l 732 774 l 372 68 l 372 71 l 368 71 l 340 972 l 58 972 l 57 964 l 188 951 l 228 -10 l 335 0 l 379 0 l 738 711 l 797 -10 l 904 0 l 949 0 z "},"Ẃ":{"ha":1336,"x_min":0,"x_max":0,"o":"m 1086 1201 l 1051 1218 l 943 1203 l 793 1024 l 838 1024 z m 1457 972 l 1154 972 l 1153 964 b 1301 749 1251 964 1300 861 l 935 53 l 938 71 l 868 969 l 869 972 l 868 972 l 867 985 l 718 947 l 732 774 l 372 68 l 372 71 l 368 71 l 340 972 l 58 972 l 57 964 l 188 951 l 228 -10 l 335 0 l 379 0 l 738 711 l 797 -10 l 904 0 l 949 0 z "},"Ŵ":{"ha":1336,"x_min":0,"x_max":0,"o":"m 831 1142 l 961 1040 l 981 1051 l 858 1239 l 831 1239 l 642 1051 l 663 1040 z m 1457 972 l 1154 972 l 1153 964 b 1301 749 1251 964 1300 861 l 935 53 l 938 71 l 868 969 l 869 972 l 868 972 l 867 985 l 718 947 l 732 774 l 372 68 l 372 71 l 368 71 l 340 972 l 58 972 l 57 964 l 188 951 l 228 -10 l 335 0 l 379 0 l 738 711 l 797 -10 l 904 0 l 949 0 z "},"Ẅ":{"ha":1336,"x_min":0,"x_max":0,"o":"m 688 1028 b 765 1107 728 1028 765 1065 b 711 1161 765 1138 743 1161 b 629 1085 671 1161 629 1125 b 688 1028 629 1053 654 1028 z m 886 1028 b 965 1107 926 1028 965 1065 b 910 1161 965 1138 942 1161 b 829 1085 871 1161 829 1125 b 886 1028 829 1053 853 1028 z m 1457 972 l 1154 972 l 1153 964 b 1301 749 1251 964 1300 861 l 935 53 l 938 71 l 868 969 l 869 972 l 868 972 l 867 985 l 718 947 l 732 774 l 372 68 l 372 71 l 368 71 l 340 972 l 58 972 l 57 964 l 188 951 l 228 -10 l 335 0 l 379 0 l 738 711 l 797 -10 l 904 0 l 949 0 z "},"Ẁ":{"ha":1336,"x_min":0,"x_max":0,"o":"m 832 1042 l 746 1221 l 643 1236 l 603 1219 l 788 1042 z m 1457 972 l 1154 972 l 1153 964 b 1301 749 1251 964 1300 861 l 935 53 l 938 71 l 868 969 l 869 972 l 868 972 l 867 985 l 718 947 l 732 774 l 372 68 l 372 71 l 368 71 l 340 972 l 58 972 l 57 964 l 188 951 l 228 -10 l 335 0 l 379 0 l 738 711 l 797 -10 l 904 0 l 949 0 z "},"X":{"ha":825,"x_min":0,"x_max":0,"o":"m 792 947 l 901 967 l 903 975 l 675 975 l 674 967 l 754 946 l 483 614 l 354 951 l 431 967 l 432 972 l 135 972 l 133 967 l 208 950 l 389 478 l 36 26 l -71 6 l -72 -3 l 181 -3 l 182 6 l 89 28 l 83 28 l 403 442 l 563 21 l 490 6 l 489 0 l 786 0 l 788 6 l 711 22 l 496 581 z "},"Y":{"ha":632,"x_min":0,"x_max":0,"o":"m 829 972 l 611 972 l 610 964 l 690 943 l 407 483 l 407 486 l 275 950 l 358 967 l 360 972 l 58 972 l 57 967 l 140 949 l 140 950 l 279 442 l 206 22 l 110 8 l 108 0 l 433 0 l 435 8 l 344 22 l 419 447 l 721 940 l 828 964 z "},"Ý":{"ha":833,"x_min":0,"x_max":0,"o":"m 711 1201 l 676 1218 l 568 1203 l 418 1024 l 463 1024 z m 829 972 l 611 972 l 610 964 l 690 943 l 407 483 l 407 486 l 275 950 l 358 967 l 360 972 l 58 972 l 57 967 l 140 949 l 140 950 l 279 442 l 206 22 l 110 8 l 108 0 l 433 0 l 435 8 l 344 22 l 419 447 l 721 940 l 828 964 z "},"Ŷ":{"ha":833,"x_min":0,"x_max":0,"o":"m 358 1142 l 489 1040 l 508 1051 l 386 1239 l 358 1239 l 169 1051 l 190 1040 z m 829 972 l 611 972 l 610 964 l 690 943 l 407 483 l 407 486 l 275 950 l 358 967 l 360 972 l 58 972 l 57 967 l 140 949 l 140 950 l 279 442 l 206 22 l 110 8 l 108 0 l 433 0 l 435 8 l 344 22 l 419 447 l 721 940 l 828 964 z "},"Ÿ":{"ha":833,"x_min":0,"x_max":0,"o":"m 396 1028 b 474 1107 436 1028 474 1065 b 419 1161 474 1138 451 1161 b 338 1085 379 1161 338 1125 b 396 1028 338 1053 363 1028 z m 594 1028 b 674 1107 635 1028 674 1065 b 618 1161 674 1138 650 1161 b 538 1085 579 1161 538 1125 b 594 1028 538 1053 561 1028 z m 829 972 l 611 972 l 610 964 l 690 943 l 407 483 l 407 486 l 275 950 l 358 967 l 360 972 l 58 972 l 57 967 l 140 949 l 140 950 l 279 442 l 206 22 l 110 8 l 108 0 l 433 0 l 435 8 l 344 22 l 419 447 l 721 940 l 828 964 z "},"Ỳ":{"ha":833,"x_min":0,"x_max":0,"o":"m 510 1042 l 424 1221 l 321 1236 l 281 1219 l 465 1042 z m 829 972 l 611 972 l 610 964 l 690 943 l 407 483 l 407 486 l 275 950 l 358 967 l 360 972 l 58 972 l 57 967 l 140 949 l 140 950 l 279 442 l 206 22 l 110 8 l 108 0 l 433 0 l 435 8 l 344 22 l 419 447 l 721 940 l 828 964 z "},"Z":{"ha":833,"x_min":0,"x_max":0,"o":"m 496 25 l 504 24 l 163 26 l 850 956 l 842 972 l 196 972 l 192 950 l 146 718 l 157 715 l 328 950 l 674 949 l -24 19 l -10 0 l 613 0 l 678 282 l 667 285 z "},"a":{"ha":644,"x_min":0,"x_max":0,"o":"m 604 653 b 451 675 585 663 476 675 b -7 171 246 636 -7 386 b 117 -12 -7 72 42 -6 b 421 286 222 71 375 206 l 426 286 l 381 0 l 593 0 l 594 7 l 504 22 z m 396 290 b 193 85 357 217 210 85 b 132 174 150 89 132 126 b 414 622 132 367 253 622 b 501 592 446 622 475 613 z "},"á":{"ha":833,"x_min":0,"x_max":0,"o":"m 721 1017 l 625 1003 b 458 754 625 988 492 797 l 497 751 l 757 1001 l 757 1003 b 721 1017 756 1003 721 1017 z m 463 675 b 4 171 257 636 4 386 b 128 -12 4 72 53 -6 b 432 286 233 71 386 206 l 438 286 l 392 0 l 604 0 l 606 7 l 515 22 l 615 653 b 463 675 596 663 488 675 z m 407 290 b 204 85 368 217 221 85 b 143 174 161 89 143 126 b 425 622 143 367 264 622 b 513 592 457 622 486 613 z "},"â":{"ha":644,"x_min":0,"x_max":0,"o":"m 553 1017 l 525 1017 l 336 829 l 357 818 l 525 919 l 656 818 l 675 829 z m 451 675 b -7 171 246 636 -7 386 b 117 -12 -7 72 42 -6 b 421 286 222 71 375 206 l 426 286 l 381 0 l 593 0 l 594 7 l 504 22 l 604 653 b 451 675 585 663 476 675 z m 396 290 b 193 85 357 217 210 85 b 132 174 150 89 132 126 b 414 622 132 367 253 622 b 501 592 446 622 475 613 z "},"ä":{"ha":644,"x_min":0,"x_max":0,"o":"m 326 874 b 403 940 363 874 397 904 b 350 1007 410 976 386 1007 b 269 940 313 1007 276 976 b 326 874 264 904 289 874 z m 525 874 b 603 940 561 874 597 904 b 549 1007 610 976 585 1007 b 469 940 513 1007 476 976 b 525 874 464 904 489 874 z m 604 653 b 451 675 585 663 476 675 b -7 171 246 636 -7 386 b 117 -12 -7 72 42 -6 b 421 286 222 71 375 206 l 426 286 l 381 0 l 593 0 l 594 7 l 504 22 z m 396 290 b 193 85 357 217 210 85 b 132 174 150 89 132 126 b 414 622 132 367 253 622 b 501 592 446 622 475 613 z "},"à":{"ha":833,"x_min":0,"x_max":0,"o":"m 468 754 b 315 1003 435 797 315 988 l 219 1017 b 183 1003 219 1017 185 1003 l 183 1001 l 429 751 z m 615 653 b 463 675 596 663 488 675 b 4 171 257 636 4 386 b 128 -12 4 72 53 -6 b 432 286 233 71 386 206 l 438 286 l 392 0 l 604 0 l 606 7 l 515 22 z m 407 290 b 204 85 368 217 221 85 b 143 174 161 89 143 126 b 425 622 143 367 264 622 b 513 592 457 622 486 613 z "},"å":{"ha":667,"x_min":0,"x_max":0,"o":"m 493 739 b 625 876 556 739 625 803 b 535 974 625 932 585 974 b 401 836 469 974 401 910 b 493 739 401 781 442 739 z m 528 933 b 572 874 554 933 572 906 b 500 781 572 826 536 781 b 454 842 472 781 454 807 b 528 933 454 883 489 933 z m 451 675 b -7 171 246 636 -7 386 b 117 -12 -7 72 42 -6 b 421 286 222 71 375 206 l 426 286 l 381 0 l 593 0 l 594 7 l 504 22 l 604 653 b 451 675 585 663 476 675 z m 396 290 b 193 85 357 217 210 85 b 132 174 150 89 132 126 b 414 622 132 367 253 622 b 501 592 446 622 475 613 z "},"ã":{"ha":644,"x_min":0,"x_max":0,"o":"m 682 1040 b 593 971 672 983 642 971 b 433 979 553 971 499 979 b 281 825 413 969 296 914 l 304 825 b 410 899 314 885 357 899 b 554 888 456 899 508 888 b 706 1040 574 897 690 953 z m 451 675 b -7 171 246 636 -7 386 b 117 -12 -7 72 42 -6 b 421 286 222 71 375 206 l 426 286 l 381 0 l 593 0 l 594 7 l 504 22 l 604 653 b 451 675 585 663 476 675 z m 396 290 b 193 85 357 217 210 85 b 132 174 150 89 132 126 b 414 622 132 367 253 622 b 501 592 446 622 475 613 z "},"æ":{"ha":933,"x_min":0,"x_max":0,"o":"m 797 361 l 907 363 b 940 507 926 407 940 460 b 803 669 940 588 903 658 b 608 597 733 664 667 639 b 456 675 608 621 578 675 b -3 171 250 636 -3 386 b 121 -12 -3 72 46 -6 b 413 265 218 64 356 185 b 408 218 410 250 408 235 b 618 -18 408 57 458 -17 b 881 181 711 14 853 147 l 867 194 b 688 68 839 161 764 68 b 543 226 568 68 544 122 l 565 356 z m 726 633 b 811 526 788 629 811 586 b 775 375 811 482 797 428 l 568 368 l 590 492 b 726 633 618 576 660 638 z m 197 85 b 136 174 154 89 136 126 b 418 622 136 367 257 622 b 506 592 450 622 479 613 l 400 290 b 197 85 361 217 214 85 z "},"b":{"ha":658,"x_min":0,"x_max":0,"o":"m 518 672 b 204 356 461 654 283 519 l 199 356 l 365 1053 l 351 1056 l 135 1054 l 133 1042 l 231 1033 l 104 363 l 56 74 l 1 50 l 3 33 b 79 13 18 28 47 21 b 225 -11 106 8 163 -11 b 656 433 422 22 656 247 b 518 672 656 563 610 672 z m 290 54 b 192 85 258 54 222 64 l 231 353 b 450 582 303 508 403 582 b 517 431 510 582 517 490 b 290 54 517 240 463 54 z "},"c":{"ha":489,"x_min":0,"x_max":0,"o":"m 425 669 b 3 215 275 664 3 453 b 186 -18 3 65 54 -17 b 428 139 263 -3 400 106 l 421 147 b 254 64 392 114 321 64 b 147 247 150 64 147 149 b 369 642 147 433 256 642 b 428 533 418 642 418 592 b 550 553 472 507 535 522 b 425 669 553 658 467 667 z "},"ç":{"ha":489,"x_min":0,"x_max":0,"o":"m 425 669 b 3 215 275 664 3 453 b 183 -18 3 67 54 -15 l 21 -115 l 24 -129 b 111 -122 38 -129 75 -122 b 204 -186 157 -122 204 -133 b 83 -337 204 -254 150 -337 b 13 -251 58 -337 13 -296 b 14 -239 13 -247 13 -243 b -51 -268 -10 -244 -29 -253 b 76 -350 -60 -312 38 -350 b 274 -161 153 -350 274 -253 b 168 -85 274 -107 225 -85 b 53 -114 128 -85 83 -96 l 261 13 l 304 39 l 313 44 b 428 139 365 81 413 121 l 421 147 b 254 64 392 114 321 64 b 147 247 150 64 147 149 b 369 642 147 433 256 642 b 428 533 418 642 418 592 b 479 519 443 524 463 519 b 550 553 511 519 540 533 b 425 669 553 658 467 667 z "},"d":{"ha":633,"x_min":0,"x_max":0,"o":"m 710 1042 l 494 1042 l 493 1033 l 588 1015 l 511 668 b 440 675 482 672 453 675 b 3 229 236 642 3 415 b 140 -10 3 100 49 -10 b 408 286 246 74 363 206 l 414 286 l 365 0 l 568 0 l 569 7 l 479 22 z m 383 290 b 208 81 344 217 242 81 b 142 232 149 81 142 172 b 375 624 142 422 211 624 b 483 588 410 624 450 613 z "},"ð":{"ha":569,"x_min":0,"x_max":0,"o":"m 550 925 l 592 954 l 588 967 l 424 886 b 197 1042 351 968 265 1022 l 186 1022 b 372 861 258 1011 326 943 l 303 826 l 225 781 l 231 765 l 311 807 l 382 842 b 433 658 414 781 433 714 l 403 665 b -3 185 206 629 -3 414 b 126 -18 -4 50 67 -4 b 585 482 354 -19 585 251 b 439 869 585 638 521 771 z m 213 26 b 125 183 156 32 125 104 b 357 624 125 371 218 638 b 450 461 425 618 450 535 b 213 26 450 225 360 13 z "},"e":{"ha":529,"x_min":0,"x_max":0,"o":"m 393 361 l 503 363 b 536 507 522 407 536 460 b 399 669 536 588 499 658 b 4 218 192 653 11 461 b 214 -18 4 57 54 -17 b 476 181 307 14 449 147 l 463 194 b 283 68 435 161 360 68 b 139 236 160 68 139 126 b 154 354 143 274 147 314 z m 322 633 b 407 526 383 629 407 586 b 371 375 407 482 393 428 l 156 368 b 322 633 181 507 226 640 z "},"é":{"ha":593,"x_min":0,"x_max":0,"o":"m 656 1017 l 560 1003 b 393 754 560 988 426 797 l 432 751 l 692 1001 l 692 1003 b 656 1017 690 1003 656 1017 z m 399 669 b 4 218 192 653 11 461 b 214 -18 4 57 54 -17 b 476 181 307 14 449 147 l 463 194 b 283 68 435 161 360 68 b 139 236 160 68 139 126 b 154 354 143 274 147 314 l 393 361 l 503 363 b 536 507 522 407 536 460 b 399 669 536 588 499 658 z m 322 633 b 407 526 383 629 407 586 b 371 375 407 482 393 428 l 156 368 b 322 633 181 507 226 640 z "},"ê":{"ha":529,"x_min":0,"x_max":0,"o":"m 386 919 l 517 818 l 536 829 l 414 1017 l 386 1017 l 197 829 l 218 818 z m 399 669 b 4 218 192 653 11 461 b 214 -18 4 57 54 -17 b 476 181 307 14 449 147 l 463 194 b 283 68 435 161 360 68 b 139 236 160 68 139 126 b 154 354 143 274 147 314 l 393 361 l 503 363 b 536 507 522 407 536 460 b 399 669 536 588 499 658 z m 322 633 b 407 526 383 629 407 586 b 371 375 407 482 393 428 l 156 368 b 322 633 181 507 226 640 z "},"ë":{"ha":529,"x_min":0,"x_max":0,"o":"m 326 874 b 403 940 363 874 397 904 b 350 1007 410 976 386 1007 b 269 940 313 1007 276 976 b 326 874 264 904 289 874 z m 549 1007 b 469 940 513 1007 476 976 b 525 874 464 904 489 874 b 603 940 561 874 597 904 b 549 1007 610 976 585 1007 z m 399 669 b 4 218 192 653 11 461 b 214 -18 4 57 54 -17 b 476 181 307 14 449 147 l 463 194 b 283 68 435 161 360 68 b 139 236 160 68 139 126 b 154 354 143 274 147 314 l 393 361 l 503 363 b 536 507 522 407 536 460 b 399 669 536 588 499 658 z m 322 633 b 407 526 383 629 407 586 b 371 375 407 482 393 428 l 156 368 b 322 633 181 507 226 640 z "},"è":{"ha":529,"x_min":0,"x_max":0,"o":"m 426 754 b 274 1003 393 797 274 988 l 178 1017 b 142 1003 178 1017 143 1003 l 142 1001 l 388 751 z m 393 361 l 503 363 b 536 507 522 407 536 460 b 399 669 536 588 499 658 b 4 218 192 653 11 461 b 214 -18 4 57 54 -17 b 476 181 307 14 449 147 l 463 194 b 283 68 435 161 360 68 b 139 236 160 68 139 126 b 154 354 143 274 147 314 z m 322 633 b 407 526 383 629 407 586 b 371 375 407 482 393 428 l 156 368 b 322 633 181 507 226 640 z "},"f":{"ha":404,"x_min":0,"x_max":0,"o":"m 425 975 b 535 915 469 975 500 947 l 635 1000 b 508 1058 606 1029 557 1054 b 174 697 414 1054 189 790 l 165 646 l 164 646 l 69 640 l 67 621 l 161 621 l 31 -158 l 32 -158 l 157 -87 l 289 618 l 433 614 l 488 621 l 490 636 l 292 636 l 340 894 b 425 975 343 918 394 975 z "},"g":{"ha":643,"x_min":0,"x_max":0,"o":"m 651 674 b 592 629 651 651 625 631 b 497 649 558 628 538 638 b 383 669 467 663 429 669 b 79 342 229 631 79 508 b 153 193 79 269 100 219 b 38 106 115 163 71 139 b 101 14 25 63 69 17 b 147 8 118 13 133 11 b -81 -172 11 -79 -37 -118 b 154 -364 -81 -257 -36 -347 b 210 -367 172 -367 190 -367 b 510 -140 258 -354 493 -333 b 300 68 519 -28 429 56 b 128 79 293 68 140 79 b 99 106 113 81 97 86 b 168 186 108 132 140 163 b 282 169 199 175 235 169 b 596 486 435 200 596 329 b 553 608 596 536 582 578 b 600 610 565 614 583 613 b 685 594 635 610 669 586 b 721 653 700 604 714 635 z m 289 193 b 206 324 231 193 206 229 b 369 646 206 464 243 646 b 469 503 442 646 469 604 b 289 193 469 363 413 193 z m 397 -187 b 175 -333 385 -329 310 -346 b 50 -165 97 -326 42 -271 b 167 4 57 -92 99 -40 b 397 -187 322 -26 404 -108 z "},"h":{"ha":711,"x_min":0,"x_max":0,"o":"m 586 22 l 585 22 b 665 503 636 306 665 444 b 496 669 665 618 621 660 b 222 343 468 661 307 575 l 219 343 l 365 1040 l 351 1043 l 122 1042 l 121 1029 l 218 1021 l 53 0 l 179 0 l 235 339 b 439 568 318 553 415 568 b 531 481 497 568 528 538 b 458 0 532 453 525 421 l 675 0 l 675 7 z "},"i":{"ha":274,"x_min":0,"x_max":0,"o":"m 224 829 b 294 897 264 825 292 856 b 236 975 299 938 276 971 b 165 908 196 978 168 949 b 224 829 161 867 183 833 z m 7 0 l 222 0 l 224 7 l 135 22 l 246 650 l 229 653 l 53 653 l 51 644 l 118 629 z "},"í":{"ha":308,"x_min":0,"x_max":0,"o":"m 376 1017 l 281 1003 b 121 754 281 988 154 797 l 160 751 l 413 1001 l 413 1003 b 376 1017 411 1003 376 1017 z m 250 653 l 74 653 l 72 644 l 139 629 l 28 0 l 243 0 l 244 7 l 156 22 l 267 650 z "},"î":{"ha":328,"x_min":0,"x_max":0,"o":"m 301 1017 l 274 1017 l 85 829 l 106 818 l 274 919 l 404 818 l 424 829 z m 263 653 l 86 653 l 85 644 l 151 629 l 40 0 l 256 0 l 257 7 l 168 22 l 279 650 z "},"ï":{"ha":322,"x_min":0,"x_max":0,"o":"m 161 874 b 238 940 197 874 232 904 b 185 1007 244 976 221 1007 b 104 940 147 1007 111 976 b 161 874 99 904 124 874 z m 360 874 b 438 940 396 874 432 904 b 383 1007 444 976 419 1007 b 304 940 347 1007 311 976 b 360 874 299 904 324 874 z m 35 0 l 250 0 l 251 7 l 163 22 l 274 650 l 257 653 l 81 653 l 79 644 l 146 629 z "},"ì":{"ha":435,"x_min":0,"x_max":0,"o":"m 414 754 b 247 1003 381 797 247 988 l 151 1017 b 115 1003 151 1017 117 1003 l 115 1001 l 375 751 z m 390 653 l 214 653 l 213 644 l 279 629 l 168 0 l 383 0 l 385 7 l 296 22 l 407 650 z "},"j":{"ha":314,"x_min":0,"x_max":0,"o":"m 275 975 b 204 908 235 978 207 949 b 263 829 200 867 222 833 b 333 897 303 825 331 856 b 275 975 338 938 315 971 z m 65 653 l 64 646 l 153 631 l -8 -244 b -94 -300 -26 -281 -49 -300 b -128 -297 -106 -300 -117 -300 b -196 -261 -149 -294 -169 -285 l -296 -324 b -158 -381 -265 -353 -207 -376 b 163 -17 -64 -376 142 -133 l 278 639 l 281 653 z "},"k":{"ha":607,"x_min":0,"x_max":0,"o":"m 32 0 l 156 0 l 206 283 l 268 340 l 418 42 l 460 0 l 619 0 l 619 7 l 554 22 l 361 413 l 351 417 l 589 632 l 590 632 l 681 644 l 681 653 l 468 653 l 468 644 l 553 632 l 199 306 l 193 306 l 357 1040 l 340 1042 l 122 1042 l 121 1033 l 210 1017 z "},"l":{"ha":311,"x_min":0,"x_max":0,"o":"m 35 0 l 246 0 l 247 7 l 163 22 l 338 1040 l 321 1042 l 121 1039 l 119 1031 l 208 1013 z "},"m":{"ha":1057,"x_min":0,"x_max":0,"o":"m 932 22 l 929 22 b 1010 503 981 306 1010 444 b 840 672 1010 618 965 663 b 606 407 815 665 692 592 b 617 503 613 451 617 482 b 447 672 617 618 572 663 b 186 343 419 664 271 575 l 183 343 l 253 651 l 239 654 l 53 653 l 51 644 l 118 629 l 17 0 l 143 0 l 199 339 b 390 571 282 553 367 571 b 482 481 449 571 479 538 b 410 0 483 453 476 421 l 532 0 l 536 21 l 540 22 l 536 22 l 596 347 b 783 571 678 554 760 571 b 875 481 842 571 872 538 b 803 0 876 453 869 421 l 1021 0 l 1021 7 z "},"n":{"ha":665,"x_min":0,"x_max":0,"o":"m 540 22 l 539 22 b 619 503 590 306 619 444 b 450 669 619 618 575 660 b 185 343 422 661 269 575 l 182 343 l 251 651 l 238 654 l 53 653 l 51 644 l 117 628 l 1 0 l 128 0 l 197 338 b 393 568 281 553 369 568 b 485 481 451 568 482 538 b 413 0 486 453 479 421 l 629 0 l 629 7 z "},"ñ":{"ha":833,"x_min":0,"x_max":0,"o":"m 710 1040 b 621 971 700 983 669 971 b 461 979 581 971 526 979 b 308 825 440 969 324 914 l 332 825 b 438 899 342 885 385 899 b 582 888 483 899 536 888 b 733 1040 601 897 718 953 z m 539 22 b 619 503 590 306 619 444 b 450 669 619 618 575 660 b 185 343 422 661 269 575 l 182 343 l 251 651 l 238 654 l 53 653 l 51 644 l 117 628 l 1 0 l 128 0 l 197 338 b 393 568 281 553 369 568 b 485 481 451 568 482 538 b 413 0 486 453 479 421 l 629 0 l 629 7 l 540 22 z "},"o":{"ha":582,"x_min":0,"x_max":0,"o":"m 128 -18 b 586 482 356 -19 586 251 b 472 671 585 626 517 654 b -1 185 257 678 -1 440 b 128 -18 -3 50 68 -4 z m 214 26 b 133 183 157 32 133 104 b 358 624 133 371 219 638 b 451 461 426 618 457 535 b 214 26 433 249 361 13 z "},"ó":{"ha":589,"x_min":0,"x_max":0,"o":"m 638 1017 l 540 1003 b 350 754 538 988 351 758 l 389 754 l 671 1001 l 672 1003 b 638 1017 671 1003 638 1017 z m 472 671 b -1 185 257 678 -1 440 b 128 -18 -3 50 68 -4 b 586 482 356 -19 586 251 b 472 671 585 626 517 654 z m 451 461 b 214 26 433 249 361 13 b 133 183 157 32 133 104 b 358 624 133 371 219 638 b 451 461 426 618 457 535 z "},"ô":{"ha":833,"x_min":0,"x_max":0,"o":"m 553 1017 l 525 1017 l 336 829 l 357 818 l 525 919 l 656 818 l 675 829 z m 472 671 b -1 185 257 678 -1 440 b 128 -18 -3 50 68 -4 b 586 482 356 -19 586 251 b 472 671 585 626 517 654 z m 451 461 b 214 26 433 249 361 13 b 133 183 157 32 133 104 b 358 624 133 371 219 638 b 451 461 426 618 457 535 z "},"ö":{"ha":582,"x_min":0,"x_max":0,"o":"m 332 874 b 408 940 368 874 403 904 b 356 1007 415 976 392 1007 b 275 940 318 1007 282 976 b 332 874 269 904 294 874 z m 531 874 b 608 940 567 874 603 904 b 554 1007 615 976 590 1007 b 475 940 518 1007 482 976 b 531 874 469 904 494 874 z m 128 -18 b 586 482 356 -19 586 251 b 472 671 585 626 517 654 b -1 185 257 678 -1 440 b 128 -18 -3 50 68 -4 z m 214 26 b 133 183 157 32 133 104 b 358 624 133 371 219 638 b 451 461 426 618 457 535 b 214 26 433 249 361 13 z "},"ò":{"ha":579,"x_min":0,"x_max":0,"o":"m 454 754 b 301 1003 421 797 301 988 l 206 1017 b 169 1003 206 1017 171 1003 l 169 1001 l 415 751 z m 469 671 b -4 185 254 678 -6 440 b 125 -18 -6 50 65 -4 b 583 482 353 -19 583 251 b 469 671 582 626 514 654 z m 449 461 b 211 26 431 249 358 13 b 125 213 147 33 117 122 b 356 624 144 410 219 638 b 449 461 424 618 454 535 z "},"ø":{"ha":589,"x_min":0,"x_max":0,"o":"m 586 482 b 482 667 585 617 526 650 l 501 706 l 443 706 l 425 668 b -1 185 221 643 -1 422 b 88 -3 -3 79 40 24 l 60 -58 l 115 -58 l 136 -18 b 586 482 361 -14 586 254 z m 133 183 b 358 624 133 371 219 638 b 396 611 372 622 385 618 l 142 106 b 133 183 136 129 133 156 z m 214 26 b 169 50 196 28 182 36 l 432 568 b 451 461 447 538 454 499 b 214 26 433 249 361 13 z "},"õ":{"ha":833,"x_min":0,"x_max":0,"o":"m 281 825 l 304 825 b 410 899 314 885 357 899 b 554 888 456 899 508 888 b 706 1040 574 897 690 953 l 682 1040 b 593 971 672 983 642 971 b 433 979 553 971 499 979 b 281 825 413 969 296 914 z m 128 -18 b 586 482 356 -19 586 251 b 472 671 585 626 517 654 b -1 185 257 678 -1 440 b 128 -18 -3 50 68 -4 z m 214 26 b 133 183 157 32 133 104 b 358 624 133 371 219 638 b 451 461 426 618 457 535 b 214 26 433 249 361 13 z "},"œ":{"ha":949,"x_min":0,"x_max":0,"o":"m 813 361 l 922 363 b 956 507 942 407 956 460 b 818 669 956 588 918 658 b 581 563 731 663 647 624 b 476 671 560 639 511 658 b 3 185 261 678 1 440 b 132 -18 1 50 72 -4 b 431 128 239 -18 347 40 b 633 -18 450 29 507 -17 b 896 181 726 14 868 147 l 882 194 b 703 68 854 161 779 68 b 558 236 579 68 558 126 b 574 354 563 274 567 314 z m 742 633 b 826 526 803 629 826 586 b 790 375 826 482 813 428 l 575 368 b 742 633 600 507 646 640 z m 218 26 b 132 213 154 33 124 122 b 363 624 151 410 226 638 b 456 461 431 618 461 535 b 218 26 438 249 365 13 z "},"p":{"ha":633,"x_min":0,"x_max":0,"o":"m 497 669 b 204 356 440 663 283 519 l 199 356 l 283 651 l 269 654 l 53 653 l 51 640 l 149 632 l -22 -347 l 119 -257 l 158 -12 l 157 -4 b 225 -11 186 -8 214 -11 b 635 419 401 22 635 233 b 497 669 635 549 589 669 z m 290 40 b 181 78 256 40 214 51 l 229 353 b 429 579 301 508 382 579 b 496 417 489 579 496 476 b 290 40 496 226 426 40 z "},"þ":{"ha":833,"x_min":0,"x_max":0,"o":""},"q":{"ha":617,"x_min":0,"x_max":0,"o":"m 525 683 l 517 663 b 432 669 483 667 446 669 b 0 229 228 636 0 415 b 132 -10 0 100 46 -10 b 418 286 238 74 372 206 l 424 286 l 304 -362 l 443 -271 l 643 710 z m 393 290 b 200 81 354 217 233 81 b 139 232 147 81 139 172 b 367 618 139 422 203 618 b 488 575 406 618 453 607 z "},"r":{"ha":444,"x_min":0,"x_max":0,"o":"m 408 664 b 208 428 382 656 256 506 l 204 428 l 282 650 l 267 653 l 76 653 l 75 644 l 142 621 l 36 22 l -60 7 l -61 0 l 247 0 l 249 7 l 160 22 l 221 424 b 372 568 263 492 339 568 b 426 538 392 568 410 563 l 525 624 b 408 664 511 657 469 668 z "},"s":{"ha":511,"x_min":0,"x_max":0,"o":"m -12 61 b 181 -19 7 38 107 -19 b 454 200 332 6 431 69 b 160 542 482 360 138 415 b 275 642 169 597 206 638 b 399 579 325 640 367 618 l 453 497 l 463 497 l 467 628 b 304 669 424 656 356 668 b 60 465 165 650 76 561 b 340 140 31 303 364 271 b 218 4 324 42 278 4 b 94 57 165 6 139 24 l 29 224 l 19 222 l -11 61 z "},"ß":{"ha":819,"x_min":0,"x_max":0,"o":"m 451 531 b 708 853 451 647 708 678 b 503 1058 708 979 638 1047 b 171 711 431 1039 189 815 l 160 646 l 69 640 l 67 621 l 156 621 l 46 0 l 169 0 l 338 918 b 439 978 367 957 401 978 b 583 836 519 978 583 944 b 351 443 583 738 351 497 b 649 153 351 292 649 267 b 513 7 649 81 594 7 b 363 85 460 7 397 47 l 322 228 l 313 226 l 282 65 b 474 -19 301 42 400 -19 b 763 221 626 6 763 83 b 451 531 763 372 451 418 z "},"t":{"ha":439,"x_min":0,"x_max":0,"o":"m 299 653 b 326 825 315 749 326 819 l 310 826 l 172 653 l 64 653 l 61 638 l 88 613 l 167 613 b 89 124 149 492 89 142 b 229 -18 89 36 132 -11 b 415 111 306 25 333 53 l 408 119 b 276 63 335 74 307 63 b 217 147 243 64 217 90 b 292 613 217 163 260 419 l 442 613 l 496 638 l 499 653 z "},"u":{"ha":715,"x_min":0,"x_max":0,"o":"m 671 653 l 544 653 l 489 319 b 289 82 406 106 313 82 b 197 194 231 82 200 138 b 269 653 197 299 269 596 l 53 653 l 53 646 l 142 631 l 143 631 b 63 144 92 347 63 203 b 232 -19 63 57 107 -10 b 501 315 260 -11 417 83 l 504 315 l 435 1 l 449 -1 l 665 0 l 667 13 l 569 21 z "},"ú":{"ha":833,"x_min":0,"x_max":0,"o":"m 638 1017 l 540 1003 b 350 754 538 988 351 758 l 389 754 l 671 1001 l 672 1003 b 638 1017 671 1003 638 1017 z m 544 653 l 489 319 b 289 82 406 106 313 82 b 197 194 231 82 200 138 b 269 653 197 299 269 596 l 53 653 l 53 646 l 142 631 l 143 631 b 63 144 92 347 63 203 b 232 -19 63 57 107 -10 b 501 315 260 -11 417 83 l 504 315 l 435 1 l 449 -1 l 665 0 l 667 13 l 569 21 l 671 653 z "},"û":{"ha":833,"x_min":0,"x_max":0,"o":"m 525 919 l 656 818 l 675 829 l 553 1017 l 525 1017 l 336 829 l 357 818 z m 544 653 l 489 319 b 289 82 406 106 313 82 b 197 194 231 82 200 138 b 269 653 197 299 269 596 l 53 653 l 53 646 l 142 631 l 143 631 b 63 144 92 347 63 203 b 232 -19 63 57 107 -10 b 501 315 260 -11 417 83 l 504 315 l 435 1 l 449 -1 l 665 0 l 667 13 l 569 21 l 671 653 z "},"ü":{"ha":833,"x_min":0,"x_max":0,"o":"m 326 874 b 403 940 363 874 397 904 b 350 1007 410 976 386 1007 b 269 940 313 1007 276 976 b 326 874 264 904 289 874 z m 525 874 b 603 940 561 874 597 904 b 549 1007 610 976 585 1007 b 469 940 513 1007 476 976 b 525 874 464 904 489 874 z m 671 653 l 544 653 l 489 319 b 289 82 406 106 313 82 b 197 194 231 82 200 138 b 269 653 197 299 269 596 l 53 653 l 53 646 l 142 631 l 143 631 b 63 144 92 347 63 203 b 232 -19 63 57 107 -10 b 501 315 260 -11 417 83 l 504 315 l 435 1 l 449 -1 l 665 0 l 667 13 l 569 21 z "},"ù":{"ha":833,"x_min":0,"x_max":0,"o":"m 694 754 b 528 1003 661 797 528 988 l 432 1017 b 396 1003 432 1017 397 1003 l 396 1001 l 656 751 z m 544 653 l 489 319 b 289 82 406 106 313 82 b 197 194 231 82 200 138 b 269 653 197 299 269 596 l 53 653 l 53 646 l 142 631 l 143 631 b 63 144 92 347 63 203 b 232 -19 63 57 107 -10 b 501 315 260 -11 417 83 l 504 315 l 435 1 l 449 -1 l 665 0 l 667 13 l 569 21 l 671 653 z "},"v":{"ha":544,"x_min":0,"x_max":0,"o":"m 408 653 b 407 646 408 650 408 649 b 471 496 478 646 488 546 b 186 15 465 468 244 117 l 182 39 l 225 653 l 22 653 l 21 644 l 89 628 l 75 -21 l 161 -3 l 204 -3 l 601 653 z "},"w":{"ha":906,"x_min":0,"x_max":0,"o":"m 21 642 l 104 633 l 144 -21 l 231 -3 l 260 -3 l 471 381 l 519 -21 l 606 -3 l 635 -3 l 963 653 l 769 653 b 768 646 769 650 769 649 b 860 496 839 646 876 546 b 626 36 856 469 690 157 l 626 39 l 560 653 l 440 625 l 467 411 l 253 33 l 251 39 l 236 653 l 22 653 z "},"ẃ":{"ha":833,"x_min":0,"x_max":0,"o":"m 671 1001 l 672 1003 b 638 1017 671 1003 638 1017 l 540 1003 b 350 754 538 988 351 758 l 389 754 z m 769 653 b 768 646 769 650 769 649 b 860 496 839 646 876 546 b 626 36 856 469 690 157 l 626 39 l 560 653 l 440 625 l 467 411 l 253 33 l 251 39 l 236 653 l 22 653 l 21 642 l 104 633 l 144 -21 l 231 -3 l 260 -3 l 471 381 l 519 -21 l 606 -3 l 635 -3 l 963 653 z "},"ŵ":{"ha":833,"x_min":0,"x_max":0,"o":"m 525 919 l 656 818 l 675 829 l 553 1017 l 525 1017 l 336 829 l 357 818 z m 769 653 b 768 646 769 650 769 649 b 860 496 839 646 876 546 b 626 36 856 469 690 157 l 626 39 l 560 653 l 440 625 l 467 411 l 253 33 l 251 39 l 236 653 l 22 653 l 21 642 l 104 633 l 144 -21 l 231 -3 l 260 -3 l 471 381 l 519 -21 l 606 -3 l 635 -3 l 963 653 z "},"ẅ":{"ha":906,"x_min":0,"x_max":0,"o":"m 424 874 b 500 940 460 874 494 904 b 447 1007 507 976 483 1007 b 367 940 410 1007 374 976 b 424 874 361 904 386 874 z m 622 874 b 700 940 658 874 694 904 b 646 1007 707 976 682 1007 b 567 940 610 1007 574 976 b 622 874 561 904 586 874 z m 21 642 l 104 633 l 144 -21 l 231 -3 l 260 -3 l 471 381 l 519 -21 l 606 -3 l 635 -3 l 963 653 l 769 653 b 768 646 769 650 769 649 b 860 496 839 646 876 546 b 626 36 856 469 690 157 l 626 39 l 560 653 l 440 625 l 467 411 l 253 33 l 251 39 l 236 653 l 22 653 z "},"ẁ":{"ha":833,"x_min":0,"x_max":0,"o":"m 694 754 b 528 1003 661 797 528 988 l 432 1017 b 396 1003 432 1017 397 1003 l 396 1001 l 656 751 z m 769 653 b 768 646 769 650 769 649 b 860 496 839 646 876 546 b 626 36 856 469 690 157 l 626 39 l 560 653 l 440 625 l 467 411 l 253 33 l 251 39 l 236 653 l 22 653 l 21 642 l 104 633 l 144 -21 l 231 -3 l 260 -3 l 471 381 l 519 -21 l 606 -3 l 635 -3 l 963 653 z "},"x":{"ha":661,"x_min":0,"x_max":0,"o":"m -99 0 l 47 0 l 281 283 l 413 0 l 614 0 l 615 6 l 538 22 l 375 386 l 514 542 b 715 633 568 590 660 633 l 719 653 l 579 653 l 539 603 l 367 407 l 257 653 l 46 653 l 46 647 l 118 631 l 271 306 l 126 131 b -93 19 57 67 -24 44 z "},"y":{"ha":547,"x_min":0,"x_max":0,"o":"m 410 654 l 410 646 b 507 513 474 646 531 565 l 292 83 l 290 79 l 294 103 l 222 653 l 22 653 l 21 644 l 92 632 l 179 25 l 272 40 l 129 -211 b 39 -272 97 -267 67 -272 b -62 -218 18 -272 -25 -250 l -146 -321 b -49 -364 -114 -339 -69 -360 b 156 -212 -6 -353 118 -299 l 604 653 z "},"ý":{"ha":833,"x_min":0,"x_max":0,"o":"m 638 1017 l 540 1003 b 350 754 538 988 351 758 l 389 754 l 671 1001 l 672 1003 b 638 1017 671 1003 638 1017 z m 410 646 b 507 513 474 646 531 565 l 292 83 l 290 79 l 294 103 l 222 653 l 22 653 l 21 644 l 92 632 l 179 25 l 272 40 l 129 -211 b 39 -272 97 -267 67 -272 b -62 -218 18 -272 -25 -250 l -146 -321 b -49 -364 -114 -339 -69 -360 b 156 -212 -6 -353 118 -299 l 604 653 l 410 654 z "},"ŷ":{"ha":547,"x_min":0,"x_max":0,"o":"m 372 919 l 503 818 l 522 829 l 400 1017 l 372 1017 l 183 829 l 204 818 z m 410 654 l 410 646 b 507 513 474 646 531 565 l 292 83 l 290 79 l 294 103 l 222 653 l 22 653 l 21 644 l 92 632 l 179 25 l 272 40 l 129 -211 b 39 -272 97 -267 67 -272 b -62 -218 18 -272 -25 -250 l -146 -321 b -49 -364 -114 -339 -69 -360 b 156 -212 -6 -353 118 -299 l 604 653 z "},"ÿ":{"ha":833,"x_min":0,"x_max":0,"o":"m 326 874 b 403 940 363 874 397 904 b 350 1007 410 976 386 1007 b 269 940 313 1007 276 976 b 326 874 264 904 289 874 z m 525 874 b 603 940 561 874 597 904 b 549 1007 610 976 585 1007 b 469 940 513 1007 476 976 b 525 874 464 904 489 874 z m 410 654 l 410 646 b 507 513 474 646 531 565 l 292 83 l 290 79 l 294 103 l 222 653 l 22 653 l 21 644 l 92 632 l 179 25 l 272 40 l 129 -211 b 39 -272 97 -267 67 -272 b -62 -218 18 -272 -25 -250 l -146 -321 b -49 -364 -114 -339 -69 -360 b 156 -212 -6 -353 118 -299 l 604 653 z "},"ỳ":{"ha":833,"x_min":0,"x_max":0,"o":"m 528 1003 l 432 1017 b 396 1003 432 1017 397 1003 l 396 1001 l 656 751 l 694 754 b 528 1003 661 797 528 988 z m 410 646 b 507 513 474 646 531 565 l 292 83 l 290 79 l 294 103 l 222 653 l 22 653 l 21 644 l 92 632 l 179 25 l 272 40 l 129 -211 b 39 -272 97 -267 67 -272 b -62 -218 18 -272 -25 -250 l -146 -321 b -49 -364 -114 -339 -69 -360 b 156 -212 -6 -353 118 -299 l 604 653 l 410 654 z "},"z":{"ha":614,"x_min":0,"x_max":0,"o":"m -33 -22 l -21 -35 l 15 0 l 31 22 l 51 44 l 431 -6 l 438 -6 b 599 183 496 42 596 161 b 553 269 597 232 581 263 l 496 183 b 529 146 515 174 526 161 b 483 58 531 132 519 81 b 217 144 425 58 329 144 b 115 124 188 144 149 138 l 583 622 b 624 672 597 639 621 649 l 610 683 b 557 640 599 668 582 653 l 139 679 l 139 657 l 90 464 l 103 461 l 179 588 b 315 558 218 568 265 558 b 507 586 385 558 453 574 z "},"А":{"ha":835,"x_min":0,"x_max":0,"o":"m 735 22 l 625 979 l 544 972 l 392 972 l 390 964 l 492 944 l 1 25 l -111 8 l -111 0 l 158 0 l 158 8 l 44 26 l 210 342 l 557 342 l 585 21 l 501 8 l 500 0 l 822 0 l 824 8 z m 224 368 l 506 903 l 508 893 l 554 368 z "},"Ц":{"ha":833,"x_min":0,"x_max":0,"o":""},"⁄":{"ha":833,"x_min":0,"x_max":0,"o":"m 664 1042 l 113 -58 l 192 -58 l 749 1042 z "},"*":{"ha":667,"x_min":0,"x_max":0,"o":"m 717 804 b 675 843 710 818 688 850 b 396 654 569 789 526 728 b 501 964 426 794 482 854 b 458 989 504 979 475 989 b 389 857 381 989 389 940 b 381 658 389 771 389 717 b 172 843 281 729 257 789 b 117 804 161 850 128 818 b 107 750 108 794 93 760 b 372 640 188 693 263 706 b 65 515 239 571 165 578 b 64 454 51 507 57 475 b 101 425 69 439 86 417 b 375 624 203 482 246 550 b 285 311 347 483 306 422 b 338 289 282 296 322 289 b 393 382 393 289 393 319 b 392 628 393 481 376 528 b 601 425 501 553 518 482 b 650 454 614 417 639 439 b 671 515 661 468 683 507 b 406 640 586 574 515 571 b 710 750 538 706 611 689 b 717 804 724 758 724 792 z "},"\\":{"ha":833,"x_min":0,"x_max":0,"o":""},"·":{"ha":833,"x_min":0,"x_max":0,"o":""},"•":{"ha":833,"x_min":0,"x_max":0,"o":"m 381 186 b 590 400 499 186 590 281 b 381 607 590 513 499 607 b 172 400 267 607 172 513 b 381 186 172 281 267 186 z "},":":{"ha":306,"x_min":0,"x_max":0,"o":"m 194 510 b 272 594 239 510 272 550 b 219 653 272 628 256 653 b 142 569 176 653 142 613 b 194 510 142 535 164 510 z m 89 -12 b 167 72 133 -12 167 28 b 114 131 167 106 150 131 b 36 47 71 131 36 90 b 89 -12 36 13 58 -12 z "},",":{"ha":236,"x_min":0,"x_max":0,"o":"m -18 47 b 33 -3 22 47 33 24 b -71 -158 33 -54 -22 -111 l -64 -167 b 129 49 -36 -142 129 40 b 74 136 129 94 106 136 z "},"…":{"ha":833,"x_min":0,"x_max":0,"o":""},"!":{"ha":265,"x_min":0,"x_max":0,"o":"m 92 231 l 132 231 b 332 1019 183 524 283 743 b 263 1046 335 1035 290 1046 b 185 1021 235 1046 188 1035 b 92 231 136 743 143 524 z m 65 -11 b 147 69 110 -14 144 25 b 101 132 150 104 133 131 b 19 53 57 135 22 97 b 65 -11 17 17 33 -10 z "},"¡":{"ha":833,"x_min":0,"x_max":0,"o":""},"#":{"ha":833,"x_min":0,"x_max":0,"o":""},".":{"ha":292,"x_min":0,"x_max":0,"o":"m 89 -12 b 167 72 133 -12 167 28 b 114 131 167 106 150 131 b 36 47 71 131 36 90 b 89 -12 36 13 58 -12 z "},"?":{"ha":526,"x_min":0,"x_max":0,"o":"m 104 817 b 385 986 203 915 361 986 b 594 819 478 986 594 918 b 247 446 594 736 247 522 b 289 353 247 400 267 353 l 292 350 l 179 271 b 147 411 172 271 147 339 b 439 803 147 444 439 650 b 333 914 439 876 393 914 b 122 814 261 914 168 861 z m 172 -12 b 250 72 217 -12 250 28 b 197 131 250 106 233 131 b 119 47 154 131 119 90 b 172 -12 119 13 142 -12 z "},"¿":{"ha":833,"x_min":0,"x_max":0,"o":""},"\"":{"ha":332,"x_min":0,"x_max":0,"o":"m 264 867 b 214 915 225 867 214 889 b 336 1085 214 981 283 1033 l 326 1094 b 107 850 297 1068 107 886 b 164 778 107 811 136 778 z m 431 867 b 381 915 392 867 381 889 b 503 1085 381 981 450 1033 l 493 1094 b 274 850 464 1068 274 886 b 331 778 274 811 303 778 z "},"'":{"ha":135,"x_min":0,"x_max":0,"o":"m 75 925 b 125 876 114 925 125 903 b 17 707 125 817 67 756 l 26 697 b 232 942 53 721 232 933 b 175 1014 232 981 203 1014 z "},";":{"ha":375,"x_min":0,"x_max":0,"o":"m 197 510 b 275 594 242 510 275 550 b 222 653 275 628 258 653 b 144 569 179 653 144 613 b 197 510 144 535 167 510 z m 46 47 b 97 -3 86 47 97 24 b -7 -158 97 -54 42 -111 l 0 -167 b 193 49 28 -142 193 40 b 138 136 193 94 169 136 z "},"/":{"ha":833,"x_min":0,"x_max":0,"o":"m 664 1042 l 113 -58 l 192 -58 l 749 1042 z "},"_":{"ha":535,"x_min":0,"x_max":0,"o":"m -22 -31 l -31 -78 l 506 -78 l 514 -31 z "},"—":{"ha":1024,"x_min":0,"x_max":0,"o":"m 53 463 l 46 429 l 1013 429 l 1019 463 z "},"–":{"ha":604,"x_min":0,"x_max":0,"o":"m 68 463 l 63 429 l 578 429 l 583 463 z "},"-":{"ha":456,"x_min":0,"x_max":0,"o":"m 61 440 l 51 375 l 50 369 l 421 369 l 431 433 l 431 439 z "},"«":{"ha":833,"x_min":0,"x_max":0,"o":""},"»":{"ha":833,"x_min":0,"x_max":0,"o":""},"‹":{"ha":833,"x_min":0,"x_max":0,"o":""},"›":{"ha":833,"x_min":0,"x_max":0,"o":""},"„":{"ha":833,"x_min":0,"x_max":0,"o":"m 74 136 l -18 47 b 33 -3 22 47 33 24 b -71 -158 33 -54 -22 -111 l -64 -167 b 129 49 -36 -142 129 40 b 74 136 129 94 106 136 z "},"“":{"ha":833,"x_min":0,"x_max":0,"o":""},"”":{"ha":382,"x_min":0,"x_max":0,"o":"m 136 867 l 236 778 b 293 850 264 778 293 811 b 74 1094 293 886 103 1068 l 64 1085 b 186 915 117 1033 186 981 b 136 867 186 889 175 867 z m 303 867 l 403 778 b 460 850 431 778 460 811 b 240 1094 460 886 269 1068 l 231 1085 b 353 915 283 1033 353 981 b 303 867 353 889 342 867 z "},"‘":{"ha":833,"x_min":0,"x_max":0,"o":""},"’":{"ha":171,"x_min":0,"x_max":0,"o":"m 124 953 b 174 904 163 953 174 931 b 65 735 174 844 115 783 l 75 725 b 281 969 101 749 281 961 b 224 1042 281 1008 251 1042 z "},"‚":{"ha":833,"x_min":0,"x_max":0,"o":"m -18 47 b 33 -3 22 47 33 24 b -71 -158 33 -54 -22 -111 l -64 -167 b 129 49 -36 -142 129 40 b 74 136 129 94 106 136 z "}," ":{"ha":278,"x_min":0,"x_max":0,"o":""},"¢":{"ha":485,"x_min":0,"x_max":0,"o":"m 425 669 b 342 650 400 668 372 663 l 367 781 l 349 781 l 333 715 l 319 642 b 3 215 174 575 3 404 b 186 -18 3 65 54 -17 l 201 -14 l 189 -85 l 200 -97 l 206 -97 l 222 -7 b 428 139 300 26 404 110 l 421 147 b 254 64 392 114 321 64 b 235 65 247 64 242 64 l 340 638 b 369 642 350 640 360 642 b 428 533 418 642 418 592 b 550 553 472 507 535 522 b 425 669 553 658 467 667 z m 217 68 b 147 247 149 88 147 163 b 318 628 147 404 225 578 z "},"¤":{"ha":833,"x_min":0,"x_max":0,"o":""},"$":{"ha":833,"x_min":0,"x_max":0,"o":"m 488 617 l 549 513 l 560 513 l 557 674 b 375 718 521 706 457 718 l 374 718 l 386 781 l 368 781 l 353 715 l 353 714 b 106 501 221 685 106 613 b 281 319 106 425 197 372 l 225 11 b 124 79 176 21 142 49 l 83 244 l 74 244 l 22 72 b 221 -19 42 47 143 -17 l 208 -85 l 219 -97 l 225 -97 l 240 -17 b 532 232 393 10 532 96 b 321 431 532 314 415 368 l 368 685 b 488 617 425 674 476 643 z m 303 442 b 203 582 247 482 203 525 b 328 689 203 654 251 685 b 347 688 335 689 342 689 z m 418 167 b 268 6 418 89 357 6 b 244 7 260 6 251 7 l 299 307 b 418 167 363 265 418 222 z "},"€":{"ha":872,"x_min":0,"x_max":0,"o":"m 451 675 b 83 381 290 650 143 533 l 24 381 l 21 367 l 78 364 b 63 314 71 349 67 332 l 11 311 l 10 297 l 60 297 b 54 231 56 275 54 253 b 317 -15 54 75 151 -14 b 582 160 394 31 556 126 l 572 169 b 369 71 543 136 435 71 b 183 268 218 71 183 132 b 185 296 183 278 183 286 l 467 293 l 482 304 l 482 308 l 185 314 b 192 363 186 329 189 346 l 479 360 l 493 369 l 494 375 l 194 379 b 421 653 224 519 303 653 b 607 469 521 653 585 556 l 621 472 l 622 653 b 451 675 581 668 514 675 z "},"£":{"ha":833,"x_min":0,"x_max":0,"o":""},"¥":{"ha":833,"x_min":0,"x_max":0,"o":""},"+":{"ha":833,"x_min":0,"x_max":0,"o":""},"−":{"ha":833,"x_min":0,"x_max":0,"o":""},"×":{"ha":833,"x_min":0,"x_max":0,"o":""},"÷":{"ha":833,"x_min":0,"x_max":0,"o":""},"=":{"ha":833,"x_min":0,"x_max":0,"o":""},"≠":{"ha":833,"x_min":0,"x_max":0,"o":""},">":{"ha":576,"x_min":0,"x_max":0,"o":"m 567 450 l 563 450 l 139 657 l 68 611 l 492 410 l 68 203 l 133 160 l 563 364 l 565 364 z "},"<":{"ha":579,"x_min":0,"x_max":0,"o":"m 539 611 l 468 657 l 44 450 l 40 450 l 42 364 l 44 364 l 474 160 l 539 203 l 115 410 z "},"≥":{"ha":833,"x_min":0,"x_max":0,"o":""},"≤":{"ha":833,"x_min":0,"x_max":0,"o":""},"±":{"ha":833,"x_min":0,"x_max":0,"o":""},"≈":{"ha":833,"x_min":0,"x_max":0,"o":""},"~":{"ha":833,"x_min":0,"x_max":0,"o":""},"¬":{"ha":833,"x_min":0,"x_max":0,"o":""},"∅":{"ha":833,"x_min":0,"x_max":0,"o":""},"∞":{"ha":833,"x_min":0,"x_max":0,"o":""},"∫":{"ha":833,"x_min":0,"x_max":0,"o":""},"∏":{"ha":833,"x_min":0,"x_max":0,"o":""},"∑":{"ha":833,"x_min":0,"x_max":0,"o":""},"√":{"ha":833,"x_min":0,"x_max":0,"o":""},"∂":{"ha":833,"x_min":0,"x_max":0,"o":""},"%":{"ha":833,"x_min":0,"x_max":0,"o":""},"‰":{"ha":833,"x_min":0,"x_max":0,"o":""},"↑":{"ha":833,"x_min":0,"x_max":0,"o":""},"↗":{"ha":833,"x_min":0,"x_max":0,"o":""},"→":{"ha":833,"x_min":0,"x_max":0,"o":""},"↘":{"ha":833,"x_min":0,"x_max":0,"o":""},"↓":{"ha":833,"x_min":0,"x_max":0,"o":""},"↙":{"ha":833,"x_min":0,"x_max":0,"o":""},"←":{"ha":833,"x_min":0,"x_max":0,"o":""},"↖":{"ha":833,"x_min":0,"x_max":0,"o":""},"↔":{"ha":833,"x_min":0,"x_max":0,"o":""},"↕":{"ha":833,"x_min":0,"x_max":0,"o":""},"◊":{"ha":833,"x_min":0,"x_max":0,"o":""},"@":{"ha":833,"x_min":0,"x_max":0,"o":""},"&":{"ha":833,"x_min":0,"x_max":0,"o":"m 1000 636 l 1001 644 l 663 644 l 661 636 l 810 613 b 564 210 732 474 597 268 b 343 832 465 393 343 682 b 404 942 343 882 367 908 b 449 947 418 944 435 947 b 588 851 528 947 594 892 l 592 846 l 689 932 b 489 990 669 974 558 990 b 436 985 464 990 446 989 b 210 771 367 931 221 801 b 253 551 210 713 226 636 b 10 221 132 471 10 365 b 294 -18 10 67 122 -18 b 469 92 361 17 415 53 b 535 0 492 58 514 26 l 660 0 l 818 124 l 808 138 b 679 44 790 124 697 44 b 582 178 664 44 626 97 l 846 611 z m 363 65 b 131 292 278 65 131 135 b 258 535 131 400 181 468 b 460 107 306 392 382 231 b 363 65 428 83 396 65 z "},"¶":{"ha":833,"x_min":0,"x_max":0,"o":""},"§":{"ha":833,"x_min":0,"x_max":0,"o":""},"©":{"ha":833,"x_min":0,"x_max":0,"o":""},"®":{"ha":833,"x_min":0,"x_max":0,"o":""},"™":{"ha":1953,"x_min":0,"x_max":0,"o":"m 599 946 l 749 946 b 856 715 790 890 843 756 l 864 715 l 878 978 l 860 978 b 776 972 842 975 790 972 l 293 972 b 213 978 279 972 231 975 l 194 978 l 117 715 l 125 715 b 313 946 151 756 250 890 l 460 946 l 301 49 l 301 50 l 132 8 l 131 0 l 594 0 l 596 8 l 440 50 z m 2068 954 l 2071 972 l 1883 972 l 1821 975 l 1821 972 l 1819 972 l 1410 221 l 1257 976 l 1139 972 l 972 972 l 969 954 l 1088 936 l 924 32 l 778 8 l 776 0 l 1101 0 l 1103 8 l 967 33 l 1122 924 l 1301 -3 l 1325 -3 l 1806 881 l 1667 25 l 1558 8 l 1557 0 l 1910 0 l 1911 8 l 1808 25 l 1806 22 l 1954 938 z "},"°":{"ha":833,"x_min":0,"x_max":0,"o":""},"|":{"ha":833,"x_min":0,"x_max":0,"o":""},"¦":{"ha":833,"x_min":0,"x_max":0,"o":""},"†":{"ha":833,"x_min":0,"x_max":0,"o":""},"‡":{"ha":833,"x_min":0,"x_max":0,"o":""},"^":{"ha":833,"x_min":0,"x_max":0,"o":""},"̈":{"ha":0,"x_min":0,"x_max":0,"o":"m -507 874 b -431 940 -471 874 -436 904 b -483 1007 -424 976 -447 1007 b -564 940 -521 1007 -557 976 b -507 874 -569 904 -544 874 z m -308 874 b -231 940 -272 874 -236 904 b -285 1007 -224 976 -249 1007 b -364 940 -321 1007 -357 976 b -308 874 -369 904 -344 874 z "},"̇":{"ha":0,"x_min":0,"x_max":0,"o":""},"̀":{"ha":0,"x_min":0,"x_max":0,"o":"m -306 1003 l -401 1017 b -437 1003 -401 1017 -436 1003 l -437 1001 l -178 751 l -139 754 b -306 1003 -172 797 -306 988 z "},"́":{"ha":0,"x_min":0,"x_max":0,"o":"m -196 1017 l -293 1003 b -483 754 -296 988 -482 758 l -444 754 l -162 1001 l -161 1003 b -196 1017 -162 1003 -196 1017 z "},"̂":{"ha":0,"x_min":0,"x_max":0,"o":"m -158 829 l -281 1017 l -308 1017 l -497 829 l -476 818 l -308 919 l -178 818 z "},"̊":{"ha":0,"x_min":0,"x_max":0,"o":"m -451 739 b -319 876 -389 739 -319 803 b -410 974 -319 932 -360 974 b -543 836 -475 974 -543 910 b -451 739 -543 781 -503 739 z m -444 781 b -490 842 -472 781 -490 807 b -417 933 -490 883 -456 933 b -372 874 -390 933 -372 906 b -444 781 -372 826 -408 781 z "},"̃":{"ha":0,"x_min":0,"x_max":0,"o":"m -317 825 l -293 825 b -187 899 -283 885 -240 899 b -43 888 -142 899 -89 888 b 108 1040 -24 897 93 953 l 85 1040 b -4 971 75 983 44 971 b -164 979 -44 971 -99 979 b -317 825 -185 969 -301 914 z "},"̧":{"ha":0,"x_min":0,"x_max":0,"o":""},"̵":{"ha":0,"x_min":0,"x_max":0,"o":""},"̸":{"ha":0,"x_min":0,"x_max":0,"o":""},"´":{"ha":833,"x_min":0,"x_max":0,"o":"m 374 1017 l 278 1003 b 111 754 278 988 144 797 l 150 751 l 410 1001 l 410 1003 b 374 1017 408 1003 374 1017 z "},"˘":{"ha":833,"x_min":0,"x_max":0,"o":""},"ˇ":{"ha":833,"x_min":0,"x_max":0,"o":""},"¸":{"ha":833,"x_min":0,"x_max":0,"o":""},"ˆ":{"ha":833,"x_min":0,"x_max":0,"o":""},"¨":{"ha":833,"x_min":0,"x_max":0,"o":"m 310 846 b 381 918 350 846 381 878 b 310 989 381 957 350 989 b 239 918 271 989 239 957 b 310 846 239 878 271 846 z m 532 846 b 603 918 572 846 603 878 b 532 989 603 957 572 989 b 461 918 493 989 461 957 b 532 846 461 878 493 846 z "},"˙":{"ha":833,"x_min":0,"x_max":0,"o":""},"`":{"ha":833,"x_min":0,"x_max":0,"o":"m 218 1003 l 122 1017 b 86 1003 122 1017 88 1003 l 86 1001 l 332 751 l 371 754 b 218 1003 338 797 218 988 z "},"˝":{"ha":833,"x_min":0,"x_max":0,"o":""},"¯":{"ha":833,"x_min":0,"x_max":0,"o":""},"˛":{"ha":833,"x_min":0,"x_max":0,"o":""},"˚":{"ha":833,"x_min":0,"x_max":0,"o":""},"˜":{"ha":833,"x_min":0,"x_max":0,"o":""}}}
